<?xml version="1.0" encoding="utf-8"?>
<!-- Generator: Adobe Illustrator 22.1.0, SVG Export Plug-In . SVG Version: 6.00 Build 0)  -->
<svg version="1.1" id="Слой_1" xmlns="http://www.w3.org/2000/svg" xmlns:xlink="http://www.w3.org/1999/xlink" x="0px" y="0px"
	 viewBox="0 0 300 300" style="enable-background:new 0 0 300 300;" xml:space="preserve">
<style type="text/css">
	.st0{fill:#DEF5FF;}
	.st1{fill:#64A0B5;}
	.st2{fill:#719AAC;}
</style>
<path class="st0" d="M150,84.3C67.2,84.3,0,71.1,0,54.7V300h300V54.7C300,71.1,232.8,84.3,150,84.3z"/>
<path class="st1" d="M470,114.8c82.8,0,150-13.3,150-29.7H320C320,101.6,387.2,114.8,470,114.8z"/>
<path class="st2" d="M416.7-8v54.7c0-16.4,67.2-29.7,150-29.7s150,13.3,150,29.7V-8H416.7z"/>
<path class="st2" d="M470,55.5c-82.8,0-150,13.3-150,29.7h300C620,68.8,552.8,55.5,470,55.5z"/>
</svg>
